<svg width="493" height="127" viewBox="0 0 493 127" fill="none" xmlns="http://www.w3.org/2000/svg">
<rect width="493" height="127" fill="black" fill-opacity="0"/>
<rect width="321" height="127" fill="black" fill-opacity="0" transform="translate(172)"/>
<path d="M179.7 29.1V100H208.3C221.7 100 230.5 91.5 230.5 79.9C230.5 70.7 224.3 64.8 217.9 63.3C223.7 61.4 228.3 55.4 228.3 48.1C228.3 37.2 220.2 29.1 206.2 29.1H179.7ZM195.1 57.5V42.2H203.5C209.7 42.2 212.8 45.2 212.8 49.8C212.8 54.6 209.2 57.5 203.7 57.5H195.1ZM195.1 87.1V70.5H205C211.2 70.5 214.8 73.9 214.8 78.8C214.8 83.9 211.1 87.1 205 87.1H195.1ZM263.707 87.5C258.007 87.5 252.507 83.4 252.507 75.1C252.507 66.7 258.007 62.8 263.707 62.8C269.507 62.8 274.907 66.7 274.907 75.1C274.907 83.5 269.507 87.5 263.707 87.5ZM263.707 48.8C248.907 48.8 237.307 59.7 237.307 75.1C237.307 90.5 248.907 101.5 263.707 101.5C278.607 101.5 290.107 90.5 290.107 75.1C290.107 59.7 278.607 48.8 263.707 48.8ZM317.994 35.8H304.394V42.2C304.394 46.8 301.894 50.3 296.694 50.3H294.194V63.6H302.994V84.9C302.994 94.8 309.294 100.9 319.594 100.9C324.394 100.9 326.894 99.8 327.494 99.5V86.9C326.594 87.1 325.094 87.4 323.494 87.4C320.194 87.4 317.994 86.3 317.994 82.2V63.6H327.694V50.3H317.994V35.8ZM349.955 70.8C350.255 66.2 353.355 62.8 358.155 62.8C363.655 62.8 366.255 66.5 366.255 71.4V100H381.455V68.8C381.455 57.9 375.655 49 362.655 49C358.255 49 353.055 50.4 349.955 53.5V27.6H334.755V100H349.955V70.8ZM425.827 50.3C424.827 50 423.327 49.8 421.827 49.8C417.827 49.8 411.527 51.4 408.927 57V50.3H394.227V100H409.427V78.3C409.427 68.4 414.927 64.8 421.027 64.8C422.527 64.8 424.127 64.9 425.827 65.3V50.3ZM431.338 85.9C431.738 91.4 436.738 101.5 452.338 101.5C465.638 101.5 472.138 93.2 472.138 84.7C472.138 77.4 467.138 71.2 456.838 69.1L450.238 67.8C448.038 67.4 446.338 66.2 446.338 64.1C446.338 61.5 448.838 59.8 451.738 59.8C456.338 59.8 458.438 62.6 458.838 65.9L471.438 63.6C470.938 57.8 465.938 48.8 451.538 48.8C440.438 48.8 432.438 56.2 432.438 65.3C432.438 72.3 436.638 78.3 447.238 80.6L452.938 81.9C456.638 82.7 457.838 84.2 457.838 86C457.838 88.2 455.938 90.3 452.038 90.3C446.838 90.3 444.438 87 444.238 83.6L431.338 85.9Z" fill="black" fill-opacity="0.85"/>
<rect width="101" height="106" fill="black" fill-opacity="0" transform="translate(0 11)"/>
<rect width="101" height="106" fill="black" fill-opacity="0" transform="translate(0 11)"/>
<path d="M0 17.3682C0 13.8511 2.85112 11 6.36816 11H63.3832C75.8576 11 85.9701 21.1125 85.9701 33.587C85.9701 46.0614 75.8576 56.1739 63.3832 56.1739H6.36815C2.85111 56.1739 0 53.3228 0 49.8058V17.3682Z" fill="#1DE2DB"/>
<path d="M0 70.534C0 66.4308 3.32631 63.1045 7.42952 63.1045H73.3508C88.2336 63.1045 100.299 75.1694 100.299 90.0523C100.299 104.935 88.2336 117 73.3508 117H7.42951C3.3263 117 0 113.674 0 109.57V70.534Z" fill="#5982E8"/>
</svg>
